<svg width="32" height="32" viewBox="0 0 32 32" fill="none" xmlns="http://www.w3.org/2000/svg">
<path d="M4 23.834V10.584C4 9.75556 4.67157 9.08398 5.5 9.08398H8.73333C9.10264 9.08398 9.44189 8.88044 9.61569 8.55457L11.051 5.8634C11.2248 5.53753 11.564 5.33398 11.9333 5.33398H20.0667C20.436 5.33398 20.7752 5.53753 20.949 5.8634L22.3843 8.55457C22.5581 8.88044 22.8974 9.08398 23.2667 9.08398H26.5C27.3284 9.08398 28 9.75556 28 10.584V23.834C28 24.6624 27.3284 25.334 26.5 25.334H5.5C4.67157 25.334 4 24.6624 4 23.834Z" stroke="#773DBD" stroke-width="2" stroke-linejoin="round"/>
<path d="M16 21.0007C18.3932 21.0007 20.3333 19.0606 20.3333 16.6673C20.3333 14.2741 18.3932 12.334 16 12.334C13.6067 12.334 11.6666 14.2741 11.6666 16.6673C11.6666 19.0606 13.6067 21.0007 16 21.0007Z" stroke="#773DBD" stroke-width="2"/>
</svg>
