<svg width="24" height="24" viewBox="0 0 24 24" fill="none" xmlns="http://www.w3.org/2000/svg">
<path d="M20 6.8V5.6C20 5.03995 20 4.75992 19.891 4.54601C19.7951 4.35785 19.6422 4.20487 19.454 4.10899C19.2401 4 18.9601 4 18.4 4H5.6C5.03995 4 4.75992 4 4.54601 4.10899C4.35785 4.20487 4.20487 4.35785 4.10899 4.54601C4 4.75992 4 5.03995 4 5.6V6.8C4 7.92011 4 8.48016 4.21799 8.90798C4.40973 9.28431 4.71569 9.59027 5.09202 9.78201C5.51984 10 6.07989 10 7.2 10H16.8C17.9201 10 18.4802 10 18.908 9.78201C19.2843 9.59027 19.5903 9.28431 19.782 8.90798C20 8.48016 20 7.92011 20 6.8Z" stroke="#667482" stroke-width="1.5" stroke-linecap="round"/>
<path d="M8 14L7.85057 14.5326C7.62358 15.3417 7.67745 16.2038 8.0034 16.9784V16.9784C8.32519 17.743 8.38191 18.5934 8.16454 19.394L8 20" stroke="#667482" stroke-width="1.5" stroke-linecap="round"/>
<path d="M12 14L11.8506 14.5326C11.6236 15.3417 11.6774 16.2038 12.0034 16.9784V16.9784C12.3252 17.743 12.3819 18.5934 12.1645 19.394L12 20" stroke="#667482" stroke-width="1.5" stroke-linecap="round"/>
<path d="M16 14L15.8506 14.5326C15.6236 15.3417 15.6774 16.2038 16.0034 16.9784V16.9784C16.3252 17.743 16.3819 18.5934 16.1645 19.394L16 20" stroke="#667482" stroke-width="1.5" stroke-linecap="round"/>
<path d="M7.5 7H9.5" stroke="#667482" stroke-width="1.5" stroke-linecap="round" stroke-linejoin="round"/>
</svg>
