<svg width="16" height="16" viewBox="0 0 16 16" fill="none" xmlns="http://www.w3.org/2000/svg">
<circle cx="8" cy="8" r="5.4" stroke="#667482" stroke-width="1.2"/>
<path d="M8 5.6C8 5.10742 8 4.86113 8.16975 4.60829C8.28746 4.43296 8.6026 4.22405 8.80993 4.18391C9.10892 4.12602 9.25851 4.18927 9.55769 4.31576C9.66905 4.36284 9.77847 4.41506 9.88559 4.47231C10.4657 4.7824 10.9604 5.23077 11.3259 5.77772C11.6913 6.32466 11.9163 6.95329 11.9807 7.60793C12.0452 8.26257 11.9472 8.923 11.6955 9.53073C11.4438 10.1385 11.0461 10.6747 10.5376 11.092C10.0291 11.5093 9.42553 11.7948 8.78036 11.9231C8.1352 12.0515 7.46834 12.0187 6.83886 11.8278C6.72263 11.7925 6.60834 11.7521 6.4963 11.7066C6.19531 11.5845 6.04481 11.5234 5.87432 11.2711C5.7561 11.0961 5.68098 10.7255 5.72173 10.5183C5.78049 10.2195 5.95464 10.0454 6.30294 9.69706L7.53137 8.46863C7.70432 8.29568 7.7908 8.2092 7.85264 8.10828C7.90747 8.01881 7.94787 7.92127 7.97237 7.81923C8 7.70414 8 7.58185 8 7.33726V5.6Z" fill="#667482"/>
</svg>
