<svg width="40" height="40" viewBox="0 0 40 40" fill="none" xmlns="http://www.w3.org/2000/svg">
<path d="M31.6663 17.0833L31.6663 14.1C31.6663 13.5399 31.6663 13.2599 31.5573 13.046C31.4615 12.8578 31.3085 12.7049 31.1203 12.609C30.9064 12.5 30.6264 12.5 30.0663 12.5L19.4997 12.5C18.7663 12.5 18.3997 12.5 18.0631 12.4039C17.7651 12.3188 17.4854 12.1789 17.2385 11.9916C16.9597 11.78 16.7397 11.4867 16.2997 10.9L15.3997 9.7C15.253 9.50444 15.1797 9.40666 15.0867 9.33614C15.0044 9.27368 14.9112 9.22708 14.8119 9.1987C14.6997 9.16666 14.5775 9.16666 14.333 9.16666L7.43301 9.16666C6.87295 9.16666 6.59293 9.16666 6.37902 9.27566C6.19085 9.37153 6.03787 9.52451 5.942 9.71267C5.83301 9.92659 5.83301 10.2066 5.83301 10.7667L5.83301 30.9C5.83301 31.4601 5.83301 31.7401 5.94201 31.954C6.03788 32.1422 6.19086 32.2951 6.37902 32.391C6.59294 32.5 6.87296 32.5 7.43301 32.5L10.833 32.5" stroke="#773DBD" stroke-width="2" stroke-linejoin="round"/>
<path d="M10.4142 19.4316L7.25223 30.459C7.05358 31.1518 6.95425 31.4982 7.03181 31.7723C7.09975 32.0124 7.255 32.2184 7.46707 32.3499C7.70917 32.5 8.06953 32.5 8.79025 32.5L28.5183 32.5C29.5989 32.5 30.1392 32.5 30.5933 32.3147C30.9941 32.1511 31.3456 31.8862 31.6133 31.546C31.9167 31.1606 32.0656 30.6412 32.3634 29.6025L35.541 18.5205C35.6404 18.1741 35.69 18.0009 35.6513 17.8639C35.6173 17.7438 35.5397 17.6408 35.4336 17.5751C35.3126 17.5 35.1319 17.5 34.7705 17.5L12.9792 17.5C12.2578 17.5 11.897 17.5 11.5943 17.6236C11.327 17.7326 11.0927 17.9092 10.9142 18.136C10.712 18.393 10.6127 18.7392 10.4142 19.4316Z" stroke="#773DBD" stroke-width="2" stroke-linecap="round" stroke-linejoin="round"/>
</svg>
