<svg width="24" height="24" viewBox="0 0 24 24" fill="none" xmlns="http://www.w3.org/2000/svg">
<path d="M3 19H4.08579C4.351 19 4.60536 19.1054 4.79289 19.2929L5.70711 20.2071C5.89464 20.3946 6.149 20.5 6.41421 20.5H17.5858C17.851 20.5 18.1054 20.3946 18.2929 20.2071L19.2071 19.2929C19.3946 19.1054 19.649 19 19.9142 19H21" stroke="#201D24" stroke-width="1.5" stroke-linecap="round"/>
<path d="M10 2L9.85057 2.53263C9.62358 3.34171 9.67745 4.20384 10.0034 4.97837V4.97837C10.3252 5.74302 10.3819 6.59335 10.1645 7.39397L10 8" stroke="#201D24" stroke-width="1.5" stroke-linecap="round"/>
<path d="M14 2L13.8506 2.53263C13.6236 3.34171 13.6774 4.20384 14.0034 4.97837V4.97837C14.3252 5.74302 14.3819 6.59335 14.1645 7.39397L14 8" stroke="#201D24" stroke-width="1.5" stroke-linecap="round"/>
<path d="M5 19.5V19C5 17.1435 5.7375 15.363 7.05025 14.0503C8.36301 12.7375 10.1435 12 12 12C13.8565 12 15.637 12.7375 16.9497 14.0503C18.2625 15.363 19 17.1435 19 19V19.5" stroke="#201D24" stroke-width="1.5"/>
<path d="M10 11C10 10.4477 10.4477 10 11 10H13C13.5523 10 14 10.4477 14 11V12H10V11Z" fill="#201D24"/>
</svg>
