<svg width="40" height="40" viewBox="0 0 40 40" fill="none" xmlns="http://www.w3.org/2000/svg">
<path d="M5 31.666H7.08579C7.351 31.666 7.60536 31.7714 7.79289 31.9589L9.70711 33.8731C9.89464 34.0607 10.149 34.166 10.4142 34.166H29.5858C29.851 34.166 30.1054 34.0607 30.2929 33.8731L32.2071 31.9589C32.3946 31.7714 32.649 31.666 32.9142 31.666H35" stroke="#773DBD" stroke-width="2" stroke-linecap="round"/>
<path d="M16.6668 3.33398L16.3994 4.28718C16.033 5.59325 16.1199 6.98495 16.6461 8.23524L16.6985 8.35976C17.218 9.59412 17.3095 10.9668 16.9586 12.2592L16.6668 13.334" stroke="#773DBD" stroke-width="2" stroke-linecap="round"/>
<path d="M23.3333 3.33398L23.0659 4.28718C22.6995 5.59325 22.7864 6.98495 23.3126 8.23524L23.365 8.35976C23.8845 9.59412 23.976 10.9668 23.6251 12.2592L23.3333 13.334" stroke="#773DBD" stroke-width="2" stroke-linecap="round"/>
<path d="M8.3335 32.5V31.6667C8.3335 28.5725 9.56266 25.605 11.7506 23.4171C13.9385 21.2292 16.906 20 20.0002 20C23.0944 20 26.0618 21.2292 28.2497 23.4171C30.4377 25.605 31.6668 28.5725 31.6668 31.6667V32.5" stroke="#773DBD" stroke-width="2"/>
<path d="M16.6665 17.666C16.6665 17.1137 17.1142 16.666 17.6665 16.666H22.3332C22.8855 16.666 23.3332 17.1137 23.3332 17.666V19.9993H16.6665V17.666Z" fill="#773DBD"/>
</svg>
