<svg width="32" height="32" viewBox="0 0 32 32" fill="none" xmlns="http://www.w3.org/2000/svg">
<path d="M25.3333 13.6667L25.3333 11.6C25.3333 11.0399 25.3333 10.7599 25.2243 10.546C25.1285 10.3578 24.9755 10.2049 24.7873 10.109C24.5734 10 24.2934 10 23.7333 10L16 10C15.2667 10 14.9 10 14.5635 9.90388C14.2654 9.81876 13.9857 9.67894 13.7388 9.49156C13.46 9.27999 13.24 8.98666 12.8 8.4L12.4 7.86666C12.2533 7.67111 12.18 7.57333 12.0871 7.50281C12.0047 7.44035 11.9115 7.39374 11.8122 7.36537C11.7 7.33333 11.5778 7.33333 11.3333 7.33333L6.26666 7.33333C5.7066 7.33333 5.42658 7.33333 5.21267 7.44233C5.0245 7.5382 4.87152 7.69118 4.77565 7.87934C4.66666 8.09325 4.66666 8.37328 4.66666 8.93333L4.66666 24.4C4.66666 24.9601 4.66666 25.2401 4.77566 25.454C4.87153 25.6422 5.02451 25.7951 5.21267 25.891C5.42658 26 5.70661 26 6.26666 26L8.66666 26" stroke="#773DBD" stroke-width="2" stroke-linejoin="round"/>
<path d="M8.22033 15.9316L5.91858 23.959C5.71993 24.6518 5.6206 24.9982 5.69816 25.2723C5.7661 25.5124 5.92135 25.7184 6.13343 25.8499C6.37552 26 6.73588 26 7.4566 26L22.2116 26C23.2921 26 23.8324 26 24.2865 25.8147C24.6874 25.6511 25.0388 25.3862 25.3066 25.046C25.6099 24.6606 25.7588 24.1412 26.0566 23.1025L28.3741 15.0205C28.4734 14.6741 28.523 14.5009 28.4843 14.3639C28.4503 14.2438 28.3727 14.1408 28.2666 14.0751C28.1456 14 27.9643 14 27.6016 14L10.7867 14C10.0643 14 9.70315 14 9.4004 14.1236C9.13318 14.2326 8.89885 14.4092 8.72037 14.636C8.51816 14.893 8.41888 15.2392 8.22033 15.9316Z" stroke="#773DBD" stroke-width="2" stroke-linecap="round" stroke-linejoin="round"/>
</svg>
