<svg width="24" height="24" viewBox="0 0 24 24" fill="none" xmlns="http://www.w3.org/2000/svg">
<path d="M12 17.9984C13.2351 17.9984 15.2807 17.9833 17.6273 16.6497C19.9739 15.3162 20.7381 13.6568 20.9774 12.8006C20.9995 12.7235 21.0055 12.6428 20.9952 12.5634C20.9849 12.4839 20.9584 12.4073 20.9174 12.338C20.8764 12.2688 20.8216 12.2083 20.7563 12.1602C20.6911 12.1122 20.6166 12.0774 20.5374 12.0581C19.9739 11.9141 18.9859 11.7853 17.7199 12.0808" stroke="#667482" stroke-width="1.5" stroke-linecap="round" stroke-linejoin="round"/>
<path d="M6.28015 12.0746C5.01421 11.7867 4.02615 11.9155 3.46265 12.0594C3.38346 12.0788 3.30902 12.1135 3.24375 12.1616C3.17848 12.2097 3.12371 12.2701 3.08268 12.3394C3.04165 12.4086 3.0152 12.4852 3.00489 12.5647C2.99458 12.6441 3.00062 12.7248 3.02266 12.802C3.26195 13.6582 4.02615 15.3251 6.37278 16.651C8.71942 17.977 10.765 17.9997 12.0001 17.9997" stroke="#667482" stroke-width="1.5" stroke-linecap="round" stroke-linejoin="round"/>
<path d="M11.9998 18C11.9998 18 15.0875 16.3482 15.0875 11.9385C15.0875 8.48337 13.1885 6.72552 12.3703 6.11937C12.2629 6.04182 12.1331 6 11.9998 6C11.8665 6 11.7366 6.04182 11.6293 6.11937C10.811 6.72552 8.91211 8.48337 8.91211 11.9385C8.91211 16.3482 11.9998 18 11.9998 18Z" stroke="#667482" stroke-width="1.5" stroke-linecap="round" stroke-linejoin="round"/>
<path d="M12 18.0017C12.9263 17.8047 15.4196 16.4257 16.9171 13.8798C18.4146 11.334 18.0441 9.31091 17.7508 8.42441C17.7059 8.28184 17.6078 8.1612 17.4761 8.08671C17.3443 8.01223 17.1888 7.98941 17.0406 8.02283C16.1543 8.21767 15.3252 8.60903 14.6168 9.16695" stroke="#667482" stroke-width="1.5" stroke-linecap="round" stroke-linejoin="round"/>
<path d="M9.38296 9.16695C8.67455 8.60903 7.84544 8.21767 6.95914 8.02283C6.81098 7.98941 6.65543 8.01223 6.5237 8.08671C6.39198 8.1612 6.29384 8.28184 6.24897 8.42441C5.95565 9.31091 5.58513 11.3415 7.08265 13.8798C8.58017 16.4181 11.0735 17.8047 11.9998 18.0017" stroke="#667482" stroke-width="1.5" stroke-linecap="round" stroke-linejoin="round"/>
</svg>
