<svg width="24" height="24" viewBox="0 0 24 24" fill="none" xmlns="http://www.w3.org/2000/svg">
<path d="M13.5 5H16.4C16.9601 5 17.2401 5 17.454 5.10899C17.6422 5.20487 17.7951 5.35785 17.891 5.54601C18 5.75992 18 6.03995 18 6.6V17.4C18 17.9601 18 18.2401 17.891 18.454C17.7951 18.6422 17.6422 18.7951 17.454 18.891C17.2401 19 16.9601 19 16.4 19H14" stroke="#201D24" stroke-width="1.5" stroke-linejoin="round"/>
<path d="M12.9614 3.32457L7.12276 5.14914C6.71957 5.27513 6.51797 5.33813 6.36868 5.45967C6.23686 5.56698 6.13458 5.70611 6.07147 5.86392C6 6.04268 6 6.25389 6 6.67631V16.8912C6 17.291 6 17.4908 6.06538 17.6626C6.12314 17.8144 6.21699 17.9499 6.33883 18.0572C6.47675 18.1788 6.6639 18.249 7.0382 18.3893L12.9191 20.5947C13.2823 20.7309 13.4639 20.7989 13.6092 20.7664C13.7363 20.738 13.8473 20.6611 13.9185 20.552C14 20.4274 14 20.2338 14 19.8465V4.08761C14 3.7197 14 3.53575 13.9231 3.41361C13.8557 3.30666 13.7503 3.2292 13.6282 3.1968C13.4886 3.1598 13.3129 3.21472 12.9614 3.32457Z" stroke="#201D24" stroke-width="1.5" stroke-linecap="round" stroke-linejoin="round"/>
<path d="M11 11.5V13.5" stroke="#201D24" stroke-width="1.5" stroke-linecap="round" stroke-linejoin="round"/>
</svg>
