<svg width="24" height="24" viewBox="0 0 24 24" fill="none" xmlns="http://www.w3.org/2000/svg">
<path d="M4 19.5H20" stroke="#201D24" stroke-width="1.5" stroke-linecap="round"/>
<path d="M13.5 5.5C13.5 4.67157 12.8284 4 12 4C11.1716 4 10.5 4.67157 10.5 5.5H13.5ZM10.5 5.5V6.5H13.5V5.5H10.5Z" fill="#201D24"/>
<path d="M5 19V17.2418C5 16.5597 5.26872 15.9055 5.74704 15.4232C6.16895 14.9977 6.42723 14.4373 6.52466 13.8437C6.86225 11.7871 7.80008 7 12.0001 7C16.2001 7 17.1377 11.7871 17.4753 13.8437C17.5728 14.4373 17.8311 14.9977 18.253 15.4232C18.7313 15.9055 19 16.5597 19 17.2418V19" stroke="#201D24" stroke-width="1.5" stroke-linecap="round"/>
</svg>
