<svg width="24" height="24" viewBox="0 0 24 24" fill="none" xmlns="http://www.w3.org/2000/svg">
<g clip-path="url(#clip0_881_51727)">
<path d="M19.89 11.85C20.8841 11.85 21.69 11.0441 21.69 10.05C21.69 9.05589 20.8841 8.25 19.89 8.25C18.8959 8.25 18.09 9.05589 18.09 10.05C18.09 11.0441 18.8959 11.85 19.89 11.85Z" stroke="#667482" stroke-width="1.5" stroke-linecap="round" stroke-linejoin="round"/>
<path d="M4.13997 11.85C5.13408 11.85 5.93997 11.0441 5.93997 10.05C5.93997 9.05589 5.13408 8.25 4.13997 8.25C3.14585 8.25 2.33997 9.05589 2.33997 10.05C2.33997 11.0441 3.14585 11.85 4.13997 11.85Z" stroke="#667482" stroke-width="1.5" stroke-linecap="round" stroke-linejoin="round"/>
<path d="M8.63997 7.35C9.63408 7.35 10.44 6.54411 10.44 5.55C10.44 4.55589 9.63408 3.75 8.63997 3.75C7.64585 3.75 6.83997 4.55589 6.83997 5.55C6.83997 6.54411 7.64585 7.35 8.63997 7.35Z" stroke="#667482" stroke-width="1.5" stroke-linecap="round" stroke-linejoin="round"/>
<path d="M15.39 7.35C16.3841 7.35 17.19 6.54411 17.19 5.55C17.19 4.55589 16.3841 3.75 15.39 3.75C14.3959 3.75 13.59 4.55589 13.59 5.55C13.59 6.54411 14.3959 7.35 15.39 7.35Z" stroke="#667482" stroke-width="1.5" stroke-linecap="round" stroke-linejoin="round"/>
<path d="M17.0677 14.3359C16.1475 13.8253 15.4678 12.9756 15.1765 11.9714C14.9784 11.2884 14.5614 10.6878 13.9883 10.2603C13.4153 9.83277 12.7174 9.60156 12 9.60156C11.2827 9.60156 10.5848 9.83277 10.0117 10.2603C9.4387 10.6878 9.02164 11.2884 8.82353 11.9714C8.53225 12.9756 7.8526 13.8253 6.93232 14.3359C6.35972 14.6449 5.90717 15.1339 5.64599 15.7257C5.3848 16.3176 5.32982 16.9787 5.4897 17.605C5.64959 18.2312 6.01525 18.7869 6.52908 19.1846C7.04291 19.5823 7.67571 19.7994 8.32778 19.8016C8.72173 19.8018 9.1118 19.7245 9.47535 19.5742C10.2757 19.2455 11.1336 19.0763 12 19.0763C12.8664 19.0763 13.7244 19.2455 14.5247 19.5742C14.8882 19.7245 15.2783 19.8018 15.6723 19.8016C16.3243 19.7994 16.9571 19.5823 17.471 19.1846C17.9848 18.7869 18.3505 18.2312 18.5103 17.605C18.6702 16.9787 18.6152 16.3176 18.3541 15.7257C18.0929 15.1339 17.6403 14.6449 17.0677 14.3359Z" stroke="#667482" stroke-width="1.5" stroke-linecap="round" stroke-linejoin="round"/>
</g>
<defs>
<clipPath id="clip0_881_51727">
<rect width="24" height="24" fill="white"/>
</clipPath>
</defs>
</svg>
