<svg width="24" height="24" viewBox="0 0 24 24" fill="none" xmlns="http://www.w3.org/2000/svg">
<g clip-path="url(#clip0_881_51714)">
<path d="M15.5355 12.4645C15.0712 12.0002 14.52 11.6319 13.9134 11.3806C13.3068 11.1293 12.6566 11 12 11C11.3434 11 10.6932 11.1293 10.0866 11.3806C9.47995 11.6319 8.92876 12.0002 8.46447 12.4645" stroke="#667482" stroke-width="1.5" stroke-linecap="round"/>
<path d="M18.364 10.636C17.5282 9.80031 16.5361 9.13738 15.4441 8.68508C14.3522 8.23279 13.1819 8 12 8C10.8181 8 9.64778 8.23279 8.55585 8.68509C7.46392 9.13738 6.47176 9.80031 5.63604 10.636" stroke="#667482" stroke-width="1.5" stroke-linecap="round"/>
<path d="M20.4853 8.51472C19.371 7.40041 18.0481 6.5165 16.5922 5.91344C15.1363 5.31039 13.5759 5 12 5C10.4241 5 8.8637 5.31039 7.4078 5.91345C5.95189 6.5165 4.62902 7.40042 3.51472 8.51472" stroke="#667482" stroke-width="1.5" stroke-linecap="round"/>
<circle cx="12" cy="17" r="2" stroke="#667482" stroke-width="1.5"/>
</g>
<defs>
<clipPath id="clip0_881_51714">
<rect width="24" height="24" fill="white"/>
</clipPath>
</defs>
</svg>
