<svg width="24" height="24" viewBox="0 0 24 24" fill="none" xmlns="http://www.w3.org/2000/svg">
<path d="M4 18V15.25M20 18V15.25M20 15.25V13.5C20 12.9477 19.5523 12.5 19 12.5H18.1176M20 15.25H4M4 15.25V13.5C4 12.9477 4.44772 12.5 5 12.5H5.88235M5.88235 12.5V7C5.88235 6.44772 6.33007 6 6.88235 6H17.1176C17.6699 6 18.1176 6.44772 18.1176 7V12.5M5.88235 12.5H18.1176" stroke="#667482" stroke-width="1.5" stroke-linecap="round" stroke-linejoin="round"/>
<path d="M13 12V12C13 11.4477 13.4477 11 14 11H15C15.5523 11 16 11.4477 16 12V12M11 12V12C11 11.4477 10.5523 11 10 11H9C8.44772 11 8 11.4477 8 12V12" stroke="#667482" stroke-width="1.5" stroke-linecap="round" stroke-linejoin="round"/>
</svg>
