<svg width="24" height="24" viewBox="0 0 24 24" fill="none" xmlns="http://www.w3.org/2000/svg">
<path d="M10.1341 19H13.8658C14.6502 19 15.0424 19 15.3507 18.8516C15.6222 18.721 15.8481 18.5116 15.9989 18.2507C16.1701 17.9545 16.1997 17.5634 16.259 16.7813L17 7H7L7.74101 16.7813C7.80026 17.5634 7.82989 17.9545 8.00114 18.2507C8.15193 18.5116 8.37778 18.721 8.64926 18.8516C8.95758 19 9.34977 19 10.1341 19Z" stroke="#667482" stroke-width="1.5" stroke-linecap="round" stroke-linejoin="round"/>
<path d="M10.25 11L10.5 15" stroke="#667482" stroke-width="1.5" stroke-linecap="round"/>
<path d="M13.75 11L13.5 15" stroke="#667482" stroke-width="1.5" stroke-linecap="round"/>
<path d="M6 7H18" stroke="#667482" stroke-width="1.5" stroke-linecap="round"/>
<path d="M9 6.5V6.35777C9 6.12143 9.0451 5.88726 9.13287 5.66781V5.66781C9.415 4.96249 10.0981 4.5 10.8578 4.5H13.1422C13.9019 4.5 14.585 4.96249 14.8671 5.66781V5.66781C14.9549 5.88726 15 6.12143 15 6.35777V6.5" stroke="#667482" stroke-width="1.5" stroke-linecap="round" stroke-linejoin="round"/>
</svg>
