<svg width="89" height="22" viewBox="0 0 89 22" fill="none" xmlns="http://www.w3.org/2000/svg">
<g clip-path="url(#clip0_2140_128301)">
<path d="M71.5266 20.901H68.3436V0.78125H71.5266V20.901Z" fill="#201D24"/>
<path fill-rule="evenodd" clip-rule="evenodd" d="M0.652344 2.1729H5.70078C10.8677 2.1729 15.0574 6.36266 15.0574 11.5443C15.0574 16.7112 10.8677 20.901 5.70078 20.901H0.652344V2.1729ZM5.59715 18.0585C8.98745 18.0585 11.7263 15.3048 11.7411 11.9145V11.1594C11.7411 7.76912 8.98745 5.01543 5.59715 5.01543H3.85018V18.0585H5.59715Z" fill="#201D24"/>
<path d="M21.1494 8.96831L21.9636 7.93197C22.4966 7.25095 23.3257 6.85122 24.1992 6.85122H26.1682V9.69375H21.1494V20.901H17.9515V6.85122H21.1494V8.96831Z" fill="#201D24"/>
<path d="M38.3147 15.1123V6.85122L41.5273 6.86603V20.9158H38.3295L38.4035 19.613C37.8113 20.2052 37.0711 20.6197 36.2716 20.8418C35.635 21.0194 34.9984 21.0935 34.347 21.0935C31.1195 21.0935 28.8692 18.6507 28.8692 15.2456V6.85122H32.0522V15.2307C32.0522 17.1998 33.3107 18.4582 35.102 18.4582C36.775 18.4582 38.3147 17.4663 38.3147 15.1123Z" fill="#201D24"/>
<path d="M57.6273 5.32633C57.6273 3.94948 58.0862 2.83912 58.9745 2.01005C59.848 1.19578 61.21 0.78125 62.6313 0.78125H65.5478V3.96428H60.8103V6.83642H65.5478V9.67894H60.8103V20.8862H57.6273V9.67894H51.1576V20.8862H47.9745V9.67894H44.1697V6.83642H47.9745V5.32633C47.9745 3.94948 48.4335 2.83912 49.3218 2.01005C50.2101 1.19578 51.3796 0.78125 52.8009 0.78125H54.918V3.96428H51.1576V6.83642H57.6273V5.32633Z" fill="#201D24"/>
<path fill-rule="evenodd" clip-rule="evenodd" d="M88.4579 14.9314C88.7466 10.2855 86.0175 6.80113 81.6878 6.80113C77.673 6.80113 74.7602 9.76933 74.7602 13.9506C74.7602 17.9512 77.3581 21.3324 81.8977 21.3324C84.3865 21.3324 86.1812 20.2596 87.2647 18.868L85.0518 17.2021C84.4332 18.2712 83.2606 18.7772 81.7665 18.7772C79.9821 18.7772 78.1453 17.5125 77.9354 14.9314H88.4579ZM81.6878 9.2015C83.5247 9.2015 85.2041 10.5178 85.2828 12.6859H77.9354C78.224 10.0791 80.2183 9.2015 81.6878 9.2015Z" fill="#201D24"/>
</g>
<defs>
<clipPath id="clip0_2140_128301">
<rect width="89" height="22" fill="white"/>
</clipPath>
</defs>
</svg>
