<svg width="24" height="24" viewBox="0 0 24 24" fill="none" xmlns="http://www.w3.org/2000/svg">
<path d="M10.2641 14.9101L17 8.17408C17.3286 7.84552 17.4928 7.68124 17.6023 7.51745C18.0517 6.84486 18.0517 5.96777 17.6023 5.29517C17.4928 5.13139 17.3286 4.96711 17 4.63855C16.6714 4.30999 16.5072 4.1457 16.3434 4.03627C15.6708 3.58685 14.7937 3.58685 14.1211 4.03627C13.9573 4.1457 13.793 4.30998 13.4645 4.63854L6.72852 11.3746L5.88202 12.2552C5.7404 12.4026 5.66959 12.4762 5.61599 12.5605C5.56843 12.6352 5.53102 12.716 5.50474 12.8006C5.47512 12.896 5.46471 12.9976 5.44388 13.2009L5.10217 16.5364L8.65107 16.0188C8.8334 15.9922 8.92457 15.9789 9.01025 15.95C9.08629 15.9243 9.15897 15.8896 9.22672 15.8466C9.30305 15.7982 9.37072 15.7356 9.50604 15.6106L10.2641 14.9101Z" stroke="#773DBD" stroke-width="1.5" stroke-linecap="round" stroke-linejoin="round"/>
<path d="M4.5 20H19.5" stroke="#773DBD" stroke-width="1.5" stroke-linecap="round"/>
<path d="M12 6L15.5355 9.53553" stroke="#773DBD" stroke-width="1.5" stroke-linejoin="round"/>
</svg>
