<svg width="24" height="24" viewBox="0 0 24 24" fill="none" xmlns="http://www.w3.org/2000/svg">
<path d="M5.5 8.565C5.5 6.63783 5.5 5.67425 5.86909 4.93557C6.20787 4.25758 6.75758 3.70787 7.43557 3.36909C8.17425 3 9.13783 3 11.065 3H12.935C14.8622 3 15.8258 3 16.5644 3.36909C17.2424 3.70787 17.7921 4.25758 18.1309 4.93557C18.5 5.67425 18.5 6.63783 18.5 8.565V15.435C18.5 17.3622 18.5 18.3258 18.1309 19.0644C17.7921 19.7424 17.2424 20.2921 16.5644 20.6309C15.8258 21 14.8622 21 12.935 21H11.065C9.13783 21 8.17425 21 7.43557 20.6309C6.75758 20.2921 6.20787 19.7424 5.86909 19.0644C5.5 18.3258 5.5 17.3622 5.5 15.435V8.565Z" stroke="#667482" stroke-width="1.5"/>
<path d="M10.5 6H13.5" stroke="#667482" stroke-width="1.5" stroke-linecap="round" stroke-linejoin="round"/>
</svg>
