<svg width="24" height="24" viewBox="0 0 24 24" fill="none" xmlns="http://www.w3.org/2000/svg">
<path d="M16 7C16 9.20914 14.2091 12 12 12C9.79086 12 8 9.20914 8 7C8 4.79086 9.79086 3 12 3C14.2091 3 16 4.79086 16 7Z" stroke="#201D24" stroke-width="1.5"/>
<path d="M4.93491 16.5291L5.40407 17.1142L4.93491 16.5291ZM5.40407 17.1142C6.82344 15.9762 9.03766 14.75 12 14.75V13.25C8.59957 13.25 6.06429 14.6623 4.46575 15.944L5.40407 17.1142ZM12 14.75C14.9623 14.75 17.1766 15.9762 18.5959 17.1142L19.5343 15.944C17.9357 14.6623 15.4004 13.25 12 13.25V14.75ZM18.1989 18.6109C16.7626 18.9406 14.6966 19.25 12 19.25V20.75C14.8124 20.75 16.9909 20.4272 18.5345 20.0728L18.1989 18.6109ZM12 19.25C9.3034 19.25 7.23744 18.9406 5.80108 18.6109L5.46549 20.0728C7.00905 20.4272 9.18756 20.75 12 20.75V19.25ZM18.5959 17.1142C18.9523 17.4 19.0129 17.7269 18.9509 17.9713C18.8869 18.2236 18.6612 18.5048 18.1989 18.6109L18.5345 20.0728C19.497 19.8519 20.1907 19.1839 20.4048 18.3402C20.6209 17.4886 20.3184 16.5727 19.5343 15.944L18.5959 17.1142ZM4.46575 15.944C3.68164 16.5727 3.37908 17.4886 3.59518 18.3402C3.80927 19.1839 4.50299 19.8519 5.46549 20.0728L5.80108 18.6109C5.33883 18.5048 5.11313 18.2236 5.0491 17.9713C4.98708 17.7269 5.0477 17.4 5.40407 17.1142L4.46575 15.944Z" fill="#201D24"/>
</svg>
