<svg width="20" height="20" viewBox="0 0 20 20" fill="none" xmlns="http://www.w3.org/2000/svg">
<g clip-path="url(#clip0_786_42500)">
<path d="M20 10C20 15.5225 15.5225 20 10 20C4.4775 20 0 15.5225 0 10C0 4.4775 4.4775 0 10 0C15.5225 0 20 4.4775 20 10Z" fill="#61656A"/>
<path d="M3.77651 9.85729C7.2715 8.31979 11.794 6.44529 12.4185 6.18579C14.056 5.50679 14.5585 5.63679 14.308 7.14079C14.128 8.22179 13.609 11.8003 13.195 14.0278C12.9495 15.3488 12.3985 15.5053 11.5325 14.9338C11.116 14.6588 9.0135 13.2683 8.557 12.9418C8.1405 12.6443 7.566 12.2863 8.2865 11.5813C8.543 11.3303 10.2235 9.72529 11.533 8.47629C11.7045 8.31229 11.489 8.04279 11.291 8.17429C9.52601 9.34479 7.079 10.9693 6.7675 11.1808C6.297 11.5003 5.845 11.6468 5.034 11.4138C4.421 11.2378 3.8225 11.0278 3.5895 10.9478C2.692 10.6398 2.90501 10.2408 3.77651 9.85729Z" fill="white"/>
</g>
<defs>
<clipPath id="clip0_786_42500">
<rect width="20" height="20" fill="white"/>
</clipPath>
</defs>
</svg>
