<svg width="20" height="20" viewBox="0 0 20 20" fill="none" xmlns="http://www.w3.org/2000/svg">
<g clip-path="url(#clip0_786_42495)">
<path d="M2.11108 14.649L2.05908 14.5585C1.25508 13.1655 0.829579 11.574 0.830079 9.956C0.832079 4.88 4.96358 0.75 10.0396 0.75C12.5026 0.751 14.8161 1.7095 16.5546 3.4495C18.2931 5.1895 19.2506 7.503 19.2506 9.9635C19.2481 15.04 15.1166 19.1705 10.0406 19.1705C8.49958 19.1695 6.97758 18.7825 5.63508 18.0505L5.54808 18.0025L0.855579 19.2325L2.11108 14.649Z" fill="#61656A"/>
<path d="M9.9975 17.5C8.7455 17.4995 7.5065 17.184 6.4145 16.5885L5.698 16.1975L4.9085 16.4045L3.288 16.8295L3.703 15.3145L3.9295 14.4865L3.5 13.7425C2.8455 12.609 2.4995 11.3135 2.5 9.9965C2.502 5.863 5.866 2.5005 9.999 2.5C12.0045 2.5005 13.8885 3.2815 15.304 4.6985C16.7205 6.1155 17.5 7.9995 17.5 10.0025C17.498 14.1365 14.134 17.5 9.9975 17.5Z" fill="#61656A"/>
<path d="M14.4927 12.118C14.2464 11.9859 13.0368 11.3438 12.8119 11.2559C12.5858 11.1669 12.4222 11.1238 12.258 11.388C12.0938 11.6534 11.6226 12.2501 11.4792 12.4264C11.3358 12.6033 11.1924 12.6252 10.9461 12.4931C10.6998 12.361 9.90671 12.0803 8.96751 11.1775C8.23575 10.4752 7.74206 9.60717 7.59867 9.34182C7.45527 9.07646 7.5828 8.93317 7.70649 8.80108C7.81705 8.68197 7.95278 8.4915 8.07538 8.337C8.19798 8.18251 8.23958 8.07165 8.32167 7.89474C8.40432 7.71784 8.36272 7.56275 8.30088 7.43066C8.23903 7.29858 7.74699 5.99361 7.54175 5.46349C7.34252 4.94693 7.13892 5.0171 6.98786 5.00885C6.84446 5.00059 6.68027 5 6.51662 5C6.35242 5 6.08588 5.06663 5.86093 5.33199C5.63598 5.59735 5 6.23833 5 7.5427C5 8.84708 5.88173 10.1078 6.00433 10.2841C6.12693 10.461 7.73878 13.1376 10.2077 14.2857C10.7945 14.5581 11.2537 14.7215 11.61 14.8441C12.1989 15.0458 12.7358 15.0175 13.16 14.9491C13.6329 14.873 14.6158 14.3081 14.8205 13.6895C15.0258 13.071 15.0258 12.5397 14.9639 12.43C14.9032 12.3168 14.7395 12.2501 14.4927 12.118Z" fill="white"/>
</g>
<defs>
<clipPath id="clip0_786_42495">
<rect width="20" height="20" fill="white"/>
</clipPath>
</defs>
</svg>
